<?xml version="1.0" encoding="UTF-8"?>
<svg id="Layer_1" data-name="Layer 1" xmlns="http://www.w3.org/2000/svg" viewBox="0 0 288 288">
  <defs>
    <style>
      .cls-1 {
        stroke: #dd2319;
      }

      .cls-1, .cls-2 {
        fill: none;
        stroke-linecap: square;
        stroke-width: 10px;
      }

      .cls-2 {
        stroke: #133d6b;
      }
    </style>
  </defs>
  <g>
    <path class="cls-2" d="M207,225h30c13.2548339959,0,24-10.7451660041,24-24v-114c0-13.2548339959-10.7451660041-24-24-24H51c-13.2548339959,0-24,10.7451660041-24,24v114c0,13.2548339959,10.7451660041,24,24,24h29.9347826087"/>
    <line class="cls-2" x1="27" y1="108" x2="261" y2="108"/>
  </g>
  <g>
    <path class="cls-1" d="M143.998673998,198.9705210117c23.1753317224,0,42.9648488995,10.8214085522,42.9648488995,25.5242403078s-19.6621501291,18.5052386805-42.9648488995,18.5052386805c-23.1753317223,0-42.9621968954-3.6750398768-42.9621968954-18.3725676244s19.659493064-25.6569113639,42.9621968954-25.6569113639Z"/>
    <path class="cls-1" d="M143.852496109,147.6032297649c14.1845684837-.0816126833,25.7495891797,11.3510934074,25.83119959,25.535661891.0816104103,14.1845639376-11.3510934074,25.7495846337-25.535657345,25.831195044-14.1845684836.0816195023-25.7495891797-11.3510888613-25.83119959-25.5356527989-.0002909462-.0499109121-.0004318733-.0998218243-.0004273272-.1497327364-.0908297681-14.0923658131,11.2596590167-25.5901188376,25.3520248298-25.6809486057.0613532808-.000395505.1227065616-.0005705273.1840598424-.000522794Z"/>
    <path class="cls-1" d="M78.4394621736,172.5607454734c13.1835121088,0,24.4409707919,6.5485217445,24.4409707919,14.9123701159s-11.1850047031,10.5268844107-24.4409707919,10.5268844107c-13.1835121087,0-24.4394621736-2.0905820593-24.4394621736-10.4514131943s11.1834932059-14.9878413323,24.4394621736-14.9878413323Z"/>
    <path class="cls-1" d="M78.4394621736,140.0294021203c8.9832081166-.0516860079,16.3074342928,7.188744201,16.3591188612,16.1719523176.0516845684,8.9832052376-7.1887442009,16.3074314138-16.1719494385,16.3591159822-8.9832081166.0516903265-16.3074342928-7.1887413219-16.3591188612-16.1719465595-.0001842587-.031609006-.000273509-.0632180121-.00027063-.0948270181-.0575232663-8.9248153796,7.130838022-16.206440366,16.0556534015-16.2639636323.0388555557-.0002504767.0777111113-.0003613198.116566667-.0003310899Z"/>
    <path class="cls-1" d="M209.5590292082,172.5607454734c13.1835121088,0,24.4409707918,6.5485217445,24.4409707918,14.9123701159s-11.1850047031,10.5268844107-24.4409707918,10.5268844107c-13.1835121087,0-24.4394621736-2.0905820593-24.4394621736-10.4514131943s11.1834932059-14.9878413323,24.4394621736-14.9878413323Z"/>
    <path class="cls-1" d="M209.5590292082,140.0294021203c8.9832081166-.0516860079,16.3074342928,7.188744201,16.3591188612,16.1719523176.0516845684,8.9832052376-7.188744201,16.3074314138-16.1719494385,16.3591159822-8.9832081166.0516903265-16.3074342928-7.1887413219-16.3591188612-16.1719465595-.0001842587-.031609006-.000273509-.0632180121-.00027063-.0948270181-.0575232663-8.9248153796,7.130838022-16.206440366,16.0556534016-16.2639636323.0388555557-.0002504767.0777111113-.0003613198.116566667-.0003310899Z"/>
  </g>
</svg>