<?xml version="1.0" encoding="UTF-8"?>
<svg id="Layer_1" data-name="Layer 1" xmlns="http://www.w3.org/2000/svg" viewBox="0 0 288 288">
  <defs>
    <style>
      .cls-1 {
        stroke: #133d6b;
        stroke-linecap: square;
      }

      .cls-1, .cls-2 {
        fill: none;
        stroke-miterlimit: 10;
        stroke-width: 10px;
      }

      .cls-2 {
        stroke: #dd2319;
      }
    </style>
  </defs>
  <g>
    <rect class="cls-1" x="32.1795338399" y="162.6064825131" width="47.3171843482" height="91.7945632726"/>
    <path class="cls-1" d="M84.2297807257,176.8713104188l41.7690346431.0000000019,39.6917560042,10.899117729c8.3222546494,2.2876405402,13.2130585195,10.872837536,10.9254179793,19.1950921855h0c-2.2876405402,8.3222546494-10.872837536,13.2130585195-19.1950921855,10.9254179793l-39.6917560042-10.899117729"/>
    <path class="cls-1" d="M79.5195939448,243.0549040037l22.6957281217.0000000011,43.4255894779,17.7751794444c7.0732433982,2.8924059301,15.1588559546,1.7485956911,21.1540297157-2.9975868795l83.1041953598-65.7760299358c6.7577206077-5.3509680218,7.9015408781-15.1720161115,2.5505828869-21.9297367192h0c-5.3509579912-6.7577206077-15.1720060808-7.9015509087-21.9297266886-2.5505828869l-56.3888457504,44.6220002214"/>
  </g>
  <g>
    <polyline class="cls-2" points="250.9657552083 95.0088487413 212.5493324017 122.9992362568 200.5175319571 131.7722333241 161.6943946047 160.0607910156 109.0342447917 126.7217036872"/>
    <polyline class="cls-2" points="250.9657552083 77.2674099392 161.6943946047 142.3193522135 109.0342447917 108.9802648851"/>
    <polygon class="cls-2" points="250.9657552083 59.5259711372 212.5493324017 87.5163586526 200.5175319571 96.2893557199 161.6943946047 124.5779134115 109.0342447917 91.238826083 146.8852750495 63.7272644671 158.9369329474 54.963311215 197.4029388462 27 250.9657552083 59.5259711372"/>
    <polygon class="cls-2" points="212.5493324017 87.5163586526 200.5175319571 96.2893557199 146.8852750495 63.7272644671 158.9369329474 54.963311215 212.5493324017 87.5163586526"/>
  </g>
</svg>