<?xml version="1.0" encoding="UTF-8"?>
<svg id="Layer_1" data-name="Layer 1" xmlns="http://www.w3.org/2000/svg" viewBox="0 0 288 288">
  <defs>
    <style>
      .cls-1 {
        stroke: #133d6b;
        stroke-miterlimit: 10;
      }

      .cls-1, .cls-2 {
        fill: none;
        stroke-width: 10px;
      }

      .cls-2 {
        stroke: #dd2319;
      }
    </style>
  </defs>
  <path class="cls-1" d="M143.9983737235,207c28.4234095375,0,52.6942833275,13.2719277003,52.6942833275,31.3042308992s-24.1146643423,22.6957691008-52.6942833275,22.6957691008c-28.4234095375,0-52.6910307744-4.5072564543-52.6910307744-22.533054547s24.1114055821-31.466945453,52.6910307744-31.466945453Z"/>
  <path class="cls-1" d="M143.8190937005,144.0005325735c17.3966786734-.1000939598,31.580610256,13.9215602383,31.6807014281,31.3182389118.100091172,17.3966730979-13.9215602384,31.5806046805-31.3182333363,31.6806958525-17.3966786734.100102323-31.580610256-13.9215546628-31.680701428-31.3182277608-.0003568313-.0612132898-.0005296714-.1224265795-.0005240959-.1836398692-.111398263-17.2835966129,13.8094204354-31.3850276901,31.0930170482-31.4964259531.0752467947-.0004850675.1504935893-.0006997238.2257403839-.0006411812Z"/>
  <path class="cls-1" d="M61.5851580412,172.0366580225c18.6564600555,0,34.5872929408,9.2670476077,34.5872929408,21.1030289277s-15.8283006639,14.8969710723-34.5872929408,14.8969710723c-18.6564600554,0-34.5851580412-2.9584575309-34.5851580412-14.7901690516s15.82616169-21.2098309484,34.5851580412-21.2098309484Z"/>
  <path class="cls-1" d="M61.5851580412,126.0003891731c12.7124594733-.0731427206,23.0772341984,10.1730493307,23.1503748818,22.8855088039.0731406834,12.712455399-10.1730493307,23.0772301241-22.8855047297,23.1503708076-12.7124594732.0731488319-23.0772341984-10.1730452564-23.1503748818-22.8855006554-.0002607511-.0447310363-.0003870524-.0894620726-.0003829782-.1341931089-.0814032339-12.6298258201,10.0911042234-22.9343140761,22.7209300434-23.01571731.0549858881-.0003544585.1099717763-.0005113166.1649576644-.0004685371Z"/>
  <path class="cls-1" d="M226.4127070592,172.0366580225c18.6564600555,0,34.5872929408,9.2670476077,34.5872929408,21.1030289277s-15.8283006639,14.8969710723-34.5872929408,14.8969710723c-18.6564600554,0-34.5851580412-2.9584575309-34.5851580412-14.7901690516s15.8261616901-21.2098309484,34.5851580412-21.2098309484Z"/>
  <path class="cls-1" d="M226.4127070592,126.0003891731c12.7124594733-.0731427206,23.0772341984,10.1730493307,23.1503748818,22.8855088039.0731406834,12.712455399-10.1730493307,23.0772301241-22.8855047297,23.1503708076-12.7124594732.0731488319-23.0772341984-10.1730452564-23.1503748818-22.8855006554-.0002607511-.0447310363-.0003870524-.0894620726-.0003829782-.1341931089-.0814032339-12.6298258201,10.0911042234-22.9343140761,22.7209300435-23.01571731.0549858881-.0003544585.1099717763-.0005113166.1649576644-.0004685371Z"/>
  <line class="cls-2" x1="143.9913093001" y1="117" x2="143.9913093001" y2="27"/>
  <polyline class="cls-2" points="243.1988721479 81 224.8712950472 99.3275771006 206.5437179466 81"/>
  <polyline class="cls-2" points="162.4587052293 98.6724228994 144.1311281286 117 125.803551028 98.6724228994"/>
  <polyline class="cls-2" points="81.4562820534 81 63.1287049527 99.3275771006 44.8011278521 81"/>
  <polyline class="cls-2" points="224.9389291074 97 224.9389291074 27 63.0610708926 27 63.0610708926 97"/>
</svg>
