<?xml version="1.0" encoding="UTF-8"?>
<svg id="Layer_1" data-name="Layer 1" xmlns="http://www.w3.org/2000/svg" xmlns:xlink="http://www.w3.org/1999/xlink" viewBox="0 0 288 288">
  <defs>
    <style>
      .cls-1 {
        stroke-miterlimit: 10;
      }

      .cls-1, .cls-2, .cls-3, .cls-4 {
        fill: none;
      }

      .cls-1, .cls-3 {
        stroke-width: 10px;
      }

      .cls-1, .cls-3, .cls-4 {
        stroke-linecap: square;
      }

      .cls-1, .cls-4 {
        stroke: #133d6b;
      }

      .cls-2 {
        stroke-width: 0px;
      }

      .cls-3 {
        stroke: #dd2319;
      }

      .cls-5 {
        clip-path: url(#clippath);
      }

      .cls-4 {
        stroke-width: 12px;
      }
    </style>
    <clipPath id="clippath">
      <rect class="cls-2" x="63" y="54" width="63" height="63"/>
    </clipPath>
  </defs>
  <line class="cls-4" x1="144" y1="63" x2="225" y2="63"/>
  <line class="cls-4" x1="79.2" y1="171" x2="208.8" y2="171"/>
  <line class="cls-4" x1="71.1" y1="202.5" x2="216.9" y2="202.5"/>
  <line class="cls-4" x1="63" y1="234" x2="225" y2="234"/>
  <line class="cls-4" x1="144" y1="108" x2="216.9" y2="108"/>
  <g class="cls-5">
    <line class="cls-3" x1="73.5" y1="54" x2="73.5" y2="117"/>
    <line class="cls-3" x1="84" y1="85.5" x2="126" y2="127.5"/>
    <line class="cls-3" x1="78.3319612576" y1="91.1680387424" x2="126" y2="43.5"/>
    <line class="cls-3" x1="110.25" y1="85.5" x2="63" y2="85.5"/>
  </g>
  <path class="cls-1" d="M237.4777835663,27H50.5222164337c-12.0335489597,0-20.9388803329,11.1944564369-18.2330224499,22.9198405962l21.7108060163,94.0801594038h180l21.7108060163-94.0801594038c2.7058578829-11.7253841593-6.1994734903-22.9198405962-18.2330224499-22.9198405962Z"/>
  <path class="cls-1" d="M50.5222164337,261h186.9555671326c12.0335489597,0,20.9388803329-11.1944564369,18.2330224499-22.9198405962l-21.7108060163-94.0801594038H54l-21.7108060163,94.0801594038c-2.7058578829,11.7253841593,6.1994734903,22.9198405962,18.2330224499,22.9198405962Z"/>
</svg>